<?xml version="1.0" standalone="no"?>
<!DOCTYPE svg PUBLIC "-//W3C//DTD SVG 1.0//EN" "http://www.w3.org/TR/2001/REC-SVG-20010904/DTD/svg10.dtd">
<svg xmlns="http://www.w3.org/2000/svg" xmlns:xlink="http://www.w3.org/1999/xlink" id="body_1" width="1280" height="960">

<defs>
    <linearGradient transform="matrix(1 0 0 1 0 0)"  id="1" x1="0" y1="1" x2="1" y2="0">
        <stop stop-color="#F87537" offset="0%"/>
        <stop stop-color="#FBA81F" offset="100%"/>
    </linearGradient>
</defs>

<g transform="matrix(9.6 0 0 9.6 159.99998 -0)">
    <path transform="matrix(1 0 0 1 50 50)"  d="M25.1 -29.5C 30.6 -25.3 31.7 -15.6 31.7 -6.9C 31.6 1.8 30.5 9.4 26.7 14.9C 22.9 20.3 16.4 23.7 8.6 28.6C 0.9 33.6 -8 40.1 -15.6 39C -23.2 37.9 -29.4 29.2 -34.5 20.1C -39.5 11 -43.3 1.3 -41.7 -7.3C -40.1 -15.9 -33.1 -23.4 -25.2 -27.2C -17.3 -30.9 -8.7 -30.9 0.6 -31.6C 9.8 -32.2 19.6 -33.7 25.1 -29.5z" stroke="none" fill="url(#1)" />
</g>
</svg>